<svg xmlns="http://www.w3.org/2000/svg" viewBox="0 0 50.12 39.38"><defs><style>.cls-1{fill:#efefef;}</style></defs><title>email</title><g id="Layer_2" data-name="Layer 2"><g id="Contact"><path class="cls-1" d="M45.64,39.38a4.27,4.27,0,0,0,2.94-1.11l-14.2-14.2-1,.71q-1.59,1.17-2.58,1.83A15.76,15.76,0,0,1,28.16,28a8,8,0,0,1-3.07.69H25A8.07,8.07,0,0,1,22,28a15.24,15.24,0,0,1-2.64-1.34c-.66-.44-1.52-1.05-2.59-1.83-.29-.22-.62-.46-1-.71L1.54,38.27a4.27,4.27,0,0,0,2.94,1.11Z"/><path class="cls-1" d="M2.83,15.13A14.8,14.8,0,0,1,0,12.7V34.3L12.52,21.79C10,20,6.79,17.82,2.83,15.13Z"/><path class="cls-1" d="M47.32,15.13Q41.61,19,37.61,21.79L50.12,34.3V12.7A15.43,15.43,0,0,1,47.32,15.13Z"/><path class="cls-1" d="M45.64,0H4.48A4,4,0,0,0,1.16,1.45,5.69,5.69,0,0,0,0,5.09,6.52,6.52,0,0,0,1.54,8.91a13.84,13.84,0,0,0,3.27,3.23c.63.45,2.55,1.77,5.73,4l4.51,3.13,2.82,2,.42.3.77.55c.61.44,1.11.79,1.51,1.06s.89.58,1.46.91a8.18,8.18,0,0,0,1.6.76,4.41,4.41,0,0,0,1.4.25h.06a4.41,4.41,0,0,0,1.4-.25,8.18,8.18,0,0,0,1.6-.76c.57-.33,1.06-.64,1.46-.91s.9-.62,1.51-1.06l.77-.55.42-.3,2.83-2,10.26-7.12A13.27,13.27,0,0,0,48.75,8.7a7.41,7.41,0,0,0,1.37-4.22,4.28,4.28,0,0,0-1.33-3.17A4.33,4.33,0,0,0,45.64,0Z"/></g></g></svg>