<svg xmlns="http://www.w3.org/2000/svg" xmlns:xlink="http://www.w3.org/1999/xlink" viewBox="0 0 348.5 216.03"><defs><style>.cls-1{fill:#606060;}.cls-2{fill:#fcfcfc;}.cls-3{fill:url(#linear-gradient);}.cls-4{fill:url(#linear-gradient-2);}.cls-5{fill:url(#linear-gradient-3);}</style><linearGradient id="linear-gradient" x1="183.23" y1="-1272.77" x2="183.23" y2="-1295.74" gradientTransform="matrix(1, 0, 0, -1, 0, -1241)" gradientUnits="userSpaceOnUse"><stop offset="0" stop-color="#45d8ff"/><stop offset="1" stop-color="#43b9f9"/></linearGradient><linearGradient id="linear-gradient-2" x1="174.21" y1="-1292.92" x2="174.21" y2="-1338.01" gradientTransform="matrix(1, 0, 0, -1, 0, -1241)" gradientUnits="userSpaceOnUse"><stop offset="0" stop-color="#fff"/><stop offset="1" stop-color="#e0e0e0"/></linearGradient><linearGradient id="linear-gradient-3" x1="172.72" y1="-1332.68" x2="172.72" y2="-1350.89" gradientTransform="matrix(1, 0, 0, -1, 0, -1241)" gradientUnits="userSpaceOnUse"><stop offset="0" stop-color="#43b9f9"/><stop offset="1" stop-color="#37a5e2"/></linearGradient></defs><title>fitly</title><g id="Layer_2" data-name="Layer 2"><g id="Projects_Page" data-name="Projects Page"><rect class="cls-1" width="348.5" height="216.03"/><path class="cls-2" d="M101.8,167.25v14.18a2.7,2.7,0,0,1-.87,2,2.9,2.9,0,0,1-2.11.88,2.76,2.76,0,0,1-2.11-.88,2.7,2.7,0,0,1-.87-2V148.5a3.35,3.35,0,0,1,3.38-3.24H114a3,3,0,0,1,2.11.84,2.72,2.72,0,0,1,.87,2,2.49,2.49,0,0,1-.87,2,3.13,3.13,0,0,1-2.11.76H101.84v10.8H113a3.07,3.07,0,0,1,2,.8,2.58,2.58,0,0,1,.94,2,2.71,2.71,0,0,1-.84,2,3,3,0,0,1-2.1.83Z"/><path class="cls-2" d="M133.64,181.43V147.62a2.73,2.73,0,0,1,.88-2,3.14,3.14,0,0,1,4.25,0,2.75,2.75,0,0,1,.87,2v33.81a2.7,2.7,0,0,1-.87,2,3,3,0,0,1-4.25,0A2.55,2.55,0,0,1,133.64,181.43Z"/><path class="cls-2" d="M165,181.43V150.9H158.4a2.94,2.94,0,0,1-2.14-.84,2.52,2.52,0,0,1-.84-1.93,2.9,2.9,0,0,1,.87-1.89,2.77,2.77,0,0,1,2.11-.94h19.19a3.24,3.24,0,0,1,2.11.83,2.63,2.63,0,0,1,1,2,2.5,2.5,0,0,1-.91,1.93,2.92,2.92,0,0,1-2.15.84H171v30.53a2.7,2.7,0,0,1-.87,2,2.89,2.89,0,0,1-2.11.88,2.76,2.76,0,0,1-2.1-.88A2.48,2.48,0,0,1,165,181.43Z"/><path class="cls-2" d="M217.91,181a2.71,2.71,0,0,1-.84,2,2.83,2.83,0,0,1-2,.8H199.66a3.2,3.2,0,0,1-2.29-.91,3,3,0,0,1-1-2.22v-33a2.75,2.75,0,0,1,.87-2,3,3,0,0,1,2.11-.83,2.93,2.93,0,0,1,2.11.83,2.75,2.75,0,0,1,.87,2V178.2H215a2.79,2.79,0,0,1,2,.8A2.5,2.5,0,0,1,217.91,181Z"/><path class="cls-2" d="M239.61,184.27a2.91,2.91,0,0,1-2.14-.88,2.87,2.87,0,0,1-.91-2.07V168.67L226.93,149a3,3,0,0,1-.19-.62,2.35,2.35,0,0,1-.07-.69,2.65,2.65,0,0,1,1-2,3.16,3.16,0,0,1,2.1-.84,3.51,3.51,0,0,1,1.39.3,2.33,2.33,0,0,1,1,.94l7.53,15.7,7.52-15.7a2.17,2.17,0,0,1,1-.94,3.4,3.4,0,0,1,1.39-.3,3.09,3.09,0,0,1,2.1.84,2.66,2.66,0,0,1,.91,2,4.39,4.39,0,0,1-.07.65c-.07.26-.11.47-.18.66l-9.63,19.73v12.62a2.81,2.81,0,0,1-.88,2A3.38,3.38,0,0,1,239.61,184.27Z"/><path class="cls-3" d="M157.49,43.29c0,3.56.62,7.13.73,10.69v.76c9.7-6.87,19.05-11.3,30.86-9.45,6.33,1,13.27,4,19.89,7.67a39.2,39.2,0,0,0-49.88-18.18A25.09,25.09,0,0,0,157.49,43.29Z"/><path class="cls-4" d="M172.69,95.6a88.29,88.29,0,0,0,34.53-5.85,60.32,60.32,0,0,1-11.23-1,44.77,44.77,0,0,1-16.32-6.68,51.36,51.36,0,0,0,32.1-.33,39.46,39.46,0,0,0-1.31-25.52c-1.42-.66-2.73-1.2-3.86-1.6-6-2.07-12-4.14-18.21-5-11.45-1.6-20.68,3.42-30.39,9.16-.91,7.05-4.14,13.74-9,18.1,2.36-3.27,2.47-8,1.82-12.21s-2-8.36-2.18-12.62a26.59,26.59,0,0,1,3.41-13.48,39.08,39.08,0,0,0-16.94,32.21,38.68,38.68,0,0,0,4.55,18.28A117.26,117.26,0,0,0,172.69,95.6Z"/><path class="cls-5" d="M185.59,99.67c-10.32,1-21.05-1.2-31.12-3.74a93.6,93.6,0,0,1-13.3-4.25,39.09,39.09,0,0,0,63.11,4.1A75.18,75.18,0,0,1,185.59,99.67Z"/></g></g></svg>