<svg xmlns="http://www.w3.org/2000/svg" viewBox="0 0 50.12 50.12"><defs><style>.cls-1{fill:#efefef;}</style></defs><title>github</title><g id="Layer_2" data-name="Layer 2"><g id="Contact"><path class="cls-1" d="M46.76,12.79a25.23,25.23,0,0,0-9.12-9.34A24,24,0,0,0,25.06,0,24,24,0,0,0,12.48,3.45a25.23,25.23,0,0,0-9.12,9.34A25.65,25.65,0,0,0,0,25.69a25.38,25.38,0,0,0,4.78,15.1,24.61,24.61,0,0,0,12.35,9.28,1.47,1.47,0,0,0,1.31-.23,1.35,1.35,0,0,0,.42-1c0-.06,0-.67,0-1.8s0-2.13,0-3l-.75.13a9.42,9.42,0,0,1-1.81.12A14,14,0,0,1,14,44.07a5,5,0,0,1-2.19-1A4.23,4.23,0,0,1,10.38,41l-.33-.77a8.69,8.69,0,0,0-1-1.71A4,4,0,0,0,7.6,37.26l-.23-.17a2.25,2.25,0,0,1-.42-.4,1.58,1.58,0,0,1-.29-.47c-.07-.15,0-.28.16-.38a2.08,2.08,0,0,1,.95-.15l.65.1a4.84,4.84,0,0,1,1.61.8,5.54,5.54,0,0,1,1.59,1.74,5.86,5.86,0,0,0,1.81,2.09,3.76,3.76,0,0,0,2.13.72A9.07,9.07,0,0,0,17.42,41a6.37,6.37,0,0,0,1.47-.5A5.49,5.49,0,0,1,20.49,37a22.22,22.22,0,0,1-3.34-.61,12.82,12.82,0,0,1-3.07-1.3,8.84,8.84,0,0,1-2.63-2.24,11.15,11.15,0,0,1-1.71-3.51,17,17,0,0,1-.67-5,9.88,9.88,0,0,1,2.58-6.89,9.16,9.16,0,0,1,.23-6.82,4.4,4.4,0,0,1,2.8.45,20.45,20.45,0,0,1,2.73,1.28c.57.36,1,.66,1.38.91a23,23,0,0,1,12.53,0l1.24-.8a17.23,17.23,0,0,1,3-1.48,4.13,4.13,0,0,1,2.64-.36,9.07,9.07,0,0,1,.26,6.82,9.88,9.88,0,0,1,2.58,6.89,17.45,17.45,0,0,1-.67,5,10.45,10.45,0,0,1-1.73,3.51A9.11,9.11,0,0,1,36,35.12a13,13,0,0,1-3.07,1.3A22.22,22.22,0,0,1,29.6,37q1.7,1.5,1.69,4.75v7a1.38,1.38,0,0,0,.41,1,1.42,1.42,0,0,0,1.29.23,24.61,24.61,0,0,0,12.35-9.28,25.38,25.38,0,0,0,4.78-15.1A25.65,25.65,0,0,0,46.76,12.79Z"/></g></g></svg>