<svg xmlns="http://www.w3.org/2000/svg" viewBox="0 0 17.45 17.45"><defs><style>.cls-1{fill:#b7b7b7;}</style></defs><title>greyPhone</title><g id="Layer_2" data-name="Layer 2"><g id="Resume"><path class="cls-1" d="M8.72,0a8.73,8.73,0,1,0,8.73,8.72A8.73,8.73,0,0,0,8.72,0Zm4.61,12.73-.7.7a1.33,1.33,0,0,1-.5.2A8.23,8.23,0,0,1,3.82,5.3,1.34,1.34,0,0,1,4,4.82l.7-.7a1.18,1.18,0,0,1,1.09-.26L6,3.91a1.41,1.41,0,0,1,.8.84L7.11,6a1.31,1.31,0,0,1-.29,1.11l-.47.46A5,5,0,0,0,9.84,11.1l.46-.47a1.31,1.31,0,0,1,1.11-.29l1.29.36a1.39,1.39,0,0,1,.84.79l.05.15A1.17,1.17,0,0,1,13.33,12.73Z"/></g></g></svg>