<svg xmlns="http://www.w3.org/2000/svg" viewBox="0 0 17.45 17.45"><defs><style>.cls-1{fill:#b7b7b7;}</style></defs><title>greyGithub</title><g id="Layer_2" data-name="Layer 2"><g id="Resume"><path class="cls-1" d="M16.28,4.45A8.78,8.78,0,0,0,13.1,1.2,8.34,8.34,0,0,0,8.72,0,8.33,8.33,0,0,0,4.35,1.2,8.78,8.78,0,0,0,1.17,4.45,8.93,8.93,0,0,0,0,8.94,8.84,8.84,0,0,0,1.66,14.2,8.58,8.58,0,0,0,6,17.43a.51.51,0,0,0,.46-.08A.45.45,0,0,0,6.57,17s0-.23,0-.63,0-.74,0-1l-.26,0a2.84,2.84,0,0,1-.63,0,4.5,4.5,0,0,1-.79-.08A1.81,1.81,0,0,1,4.11,15a1.51,1.51,0,0,1-.5-.71L3.5,14a3.39,3.39,0,0,0-.36-.6A1.5,1.5,0,0,0,2.65,13l-.08-.06a.5.5,0,0,1-.15-.14.39.39,0,0,1-.1-.16s0-.1.05-.13a.64.64,0,0,1,.33-.06l.23,0a1.52,1.52,0,0,1,.56.28,1.76,1.76,0,0,1,.55.6,2.18,2.18,0,0,0,.63.73,1.32,1.32,0,0,0,.75.25,3.13,3.13,0,0,0,.65-.06,1.8,1.8,0,0,0,.51-.17,1.88,1.88,0,0,1,.55-1.2A8.35,8.35,0,0,1,6,12.68a4.38,4.38,0,0,1-1.07-.45A3,3,0,0,1,4,11.45a3.71,3.71,0,0,1-.6-1.23,6.06,6.06,0,0,1-.23-1.74,3.44,3.44,0,0,1,.9-2.4A3.18,3.18,0,0,1,4.13,3.7a1.6,1.6,0,0,1,1,.16,5.77,5.77,0,0,1,.95.45l.48.31a8.11,8.11,0,0,1,4.37,0l.43-.28a6.73,6.73,0,0,1,1-.51,1.5,1.5,0,0,1,.92-.13,3.19,3.19,0,0,1,.09,2.38,3.44,3.44,0,0,1,.9,2.4,6.18,6.18,0,0,1-.23,1.75,3.86,3.86,0,0,1-.6,1.22,3.32,3.32,0,0,1-.92.78,4.55,4.55,0,0,1-1.07.45,8.8,8.8,0,0,1-1.17.21,2.08,2.08,0,0,1,.59,1.65V17a.45.45,0,0,0,.15.35.47.47,0,0,0,.44.08,8.54,8.54,0,0,0,4.3-3.23,8.85,8.85,0,0,0,1.67-5.26A8.93,8.93,0,0,0,16.28,4.45Z"/></g></g></svg>