<svg xmlns="http://www.w3.org/2000/svg" viewBox="0 0 17.45 17.45"><defs><style>.cls-1{fill:#191919;}</style></defs><title>blkLinkedin</title><g id="Layer_2" data-name="Layer 2"><g id="Resume"><path id="LinkedIn_alt_" data-name="LinkedIn (alt)" class="cls-1" d="M16.16,0H1.29A1.27,1.27,0,0,0,0,1.25v15a1.27,1.27,0,0,0,1.29,1.25H16.16a1.27,1.27,0,0,0,1.29-1.25V1.25A1.27,1.27,0,0,0,16.16,0ZM5.29,14.61H2.65V6.73H5.29ZM4,5.65H4A1.35,1.35,0,0,1,2.5,4.29,1.37,1.37,0,0,1,4,2.93,1.36,1.36,0,1,1,4,5.65Zm10.82,9H12.16V10.39c0-1.06-.38-1.78-1.34-1.78a1.44,1.44,0,0,0-1.35,1,1.77,1.77,0,0,0-.09.64v4.4H6.75s0-7.14,0-7.88H9.38V7.84a2.64,2.64,0,0,1,2.38-1.3c1.73,0,3,1.13,3,3.55v4.52ZM9.37,7.87v0Z"/></g></g></svg>