<svg xmlns="http://www.w3.org/2000/svg" xmlns:xlink="http://www.w3.org/1999/xlink" viewBox="0 0 898.1 785.1"><defs><style>.cls-1{fill:url(#linear-gradient);}.cls-2{fill:#fff;}</style><linearGradient id="linear-gradient" x1="-0.84" y1="784.13" x2="894.16" y2="5.13" gradientUnits="userSpaceOnUse"><stop offset="0" stop-color="#2460f1"/><stop offset="0.5" stop-color="#08c2f4"/><stop offset="1" stop-color="#34ebf9"/></linearGradient></defs><title>fitlyLogo</title><g id="Layer_2" data-name="Layer 2"><g id="Layer_1-2" data-name="Layer 1"><rect class="cls-1" width="898.1" height="785.1"/><path class="cls-2" d="M694.52,203.42h0a99.15,99.15,0,0,1-99.13,99.13h-9.18V279.37a11.14,11.14,0,0,0-21.27-4.65V258.48a14.49,14.49,0,0,0-4.21-10.17,14.21,14.21,0,0,0-11.16-4.15,14.62,14.62,0,0,0-13.34,14.71V302.5h-224V258.87c0-7.6-5.74-14.22-13.34-14.71a14.48,14.48,0,0,0-11.16,4.15,14.28,14.28,0,0,0-4.21,10.17v15.91a11.14,11.14,0,0,0-21.1,5v23.18H238.63a35.1,35.1,0,0,0-35,35.05V321.85A143.86,143.86,0,0,1,347.43,178H669A25.46,25.46,0,0,1,694.52,203.42Z"/><path class="cls-2" d="M330.32,497.26a22.39,22.39,0,0,1,20.12,32.25A138.58,138.58,0,0,1,226,607.1h0a22.42,22.42,0,0,1-22.42-22.42V533.83a36.57,36.57,0,0,1,36.58-36.52h90.16Z"/><path class="cls-2" d="M618,337.6A24.5,24.5,0,0,1,641.81,368c-13.94,56.86-66.7,94.15-129.69,94.15H238.63a35.1,35.1,0,0,0-35,35.11V374.18a36.57,36.57,0,0,1,36.58-36.53h22.25v23.19a11.24,11.24,0,0,0,1.75,6,11.08,11.08,0,0,0,9.41,5.19,10.67,10.67,0,0,0,3.06-.44,11.09,11.09,0,0,0,6.89-5.74v15.91a14.38,14.38,0,0,0,28.76,0v-44h223.9v44a14.38,14.38,0,0,0,28.76,0V365.38a11.19,11.19,0,0,0,10.22,6.56,11.32,11.32,0,0,0,11-11.49V337.6Z"/></g></g></svg>