<svg xmlns="http://www.w3.org/2000/svg" viewBox="0 0 50.12 50.12"><defs><style>.cls-1{fill:#efefef;}</style></defs><title>linkedin</title><g id="Layer_2" data-name="Layer 2"><g id="Contact"><g id="LinkedIn_alt_" data-name="LinkedIn (alt)"><path class="cls-1" d="M46.42,0H3.7A3.65,3.65,0,0,0,0,3.59V46.53a3.65,3.65,0,0,0,3.7,3.59H46.42a3.65,3.65,0,0,0,3.7-3.59V3.59A3.65,3.65,0,0,0,46.42,0ZM15.19,42H7.62V19.33h7.57ZM11.41,16.23h-.05a3.91,3.91,0,0,1-4.19-3.91c0-2.22,1.7-3.9,4.29-3.9a3.91,3.91,0,0,1,4.23,3.9C15.69,14.5,14.05,16.23,11.41,16.23ZM42.49,42H34.92V29.85c0-3.05-1.09-5.12-3.83-5.12a4.14,4.14,0,0,0-3.89,2.75A5.1,5.1,0,0,0,27,29.31V42H19.38s.1-20.5,0-22.63H27v3.21a7.53,7.53,0,0,1,6.82-3.74c5,0,8.72,3.23,8.72,10.19V42ZM26.9,22.6l.05-.07v.07Z"/></g></g></g></svg>