<svg xmlns="http://www.w3.org/2000/svg" viewBox="0 0 50.12 50.12"><defs><style>.cls-1{fill:#efefef;}</style></defs><title>phone</title><g id="Layer_2" data-name="Layer 2"><g id="Contact"><path class="cls-1" d="M25.06,0A25.06,25.06,0,1,0,50.12,25.06,25.06,25.06,0,0,0,25.06,0ZM38.29,36.56l-2,2a3.68,3.68,0,0,1-1.44.58A23.68,23.68,0,0,1,11,15.22a3.65,3.65,0,0,1,.59-1.38l2-2a3.36,3.36,0,0,1,3.13-.74l.42.14a3.94,3.94,0,0,1,2.29,2.43l1,3.7a3.58,3.58,0,0,1-.83,3.17l-1.34,1.34a14.25,14.25,0,0,0,10,10l1.34-1.34a3.63,3.63,0,0,1,3.17-.83l3.71,1A4,4,0,0,1,38.89,33l.14.43A3.33,3.33,0,0,1,38.29,36.56Z"/></g></g></svg>