<svg xmlns="http://www.w3.org/2000/svg" viewBox="0 0 348.5 216.03"><defs><style>.cls-1{fill:#fff;}.cls-2{font-size:32.34px;fill:#00143f;font-family:CircularStd-Black, Circular Std;font-weight:800;letter-spacing:-0.07em;}.cls-3{letter-spacing:-0.04em;}.cls-4{letter-spacing:-0.04em;}.cls-5{letter-spacing:-0.04em;}.cls-6{letter-spacing:-0.04em;}.cls-7{fill:#18cfed;}.cls-8{fill:#6525ff;}</style></defs><title>WashareLogo</title><g id="Layer_2" data-name="Layer 2"><g id="Projects_Page" data-name="Projects Page"><rect class="cls-1" width="348.5" height="216.03"/><text class="cls-2" transform="translate(114.04 195.13)">W<tspan class="cls-3" x="31.34" y="0">a</tspan><tspan class="cls-4" x="47.7" y="0">S</tspan><tspan class="cls-3" x="65.95" y="0">ha</tspan><tspan class="cls-5" x="100.26" y="0">r</tspan><tspan class="cls-6" x="111.97" y="0">e</tspan></text><path class="cls-7" d="M146.26,58.13a25.13,25.13,0,0,1,2.44-3.53H116.23a16.21,16.21,0,0,0-14,24.31l32,55.46a16.2,16.2,0,0,0,28.06,0L169,122.81l-22.7-39.33A25.1,25.1,0,0,1,146.26,58.13Z"/><circle class="cls-7" cx="143.24" cy="27.91" r="15.66"/><circle class="cls-8" cx="200.24" cy="27.91" r="15.66"/><path class="cls-8" d="M246.3,62.7a16,16,0,0,0-14-8.1H168.22a16.21,16.21,0,0,0-14,24.31l20.06,34.75,2.64,4.57,2.65,4.58,6.67,11.56a16.2,16.2,0,0,0,28.06,0l32-55.46A16.09,16.09,0,0,0,246.3,62.7Z"/></g></g></svg>